name C:\Users\u0101727\Documents\MyRepositories\upper-imu-dc\Results\main_tracking\Case_42\FLX01_orientations_groundFrame.mot
datacolumns 13
datarows 21
range 5.01000000 5.21000000
endheader 
time	radius_imu_[0][0]	radius_imu_[0][1]	radius_imu_[0][2]	radius_imu_[1][0]	radius_imu_[1][1]	radius_imu_[1][2]	radius_imu_[2][0]	radius_imu_[2][1]	radius_imu_[2][2]	radius_imu_x	radius_imu_y	radius_imu_z	
          5.01000000	          0.22381133	         -0.89481299	          0.38628771	         -0.30799640	          0.31109643	          0.89908689	         -0.92468736	         -0.32020105	         -0.20597227	         -1.79600075	          0.39660349	          1.32570399	
          5.02000000	          0.22612175	         -0.88810131	          0.40018122	         -0.30193704	          0.32668595	          0.89560612	         -0.92612255	         -0.32334556	         -0.19427988	         -1.78441227	          0.41171459	          1.32148116	
          5.03000000	          0.22774563	         -0.88162120	          0.41337148	         -0.29549877	          0.34192934	          0.89205650	         -0.92779976	         -0.32531274	         -0.18264507	         -1.77275123	          0.42615360	          1.31799696	
          5.04000000	          0.23172609	         -0.87430795	          0.42648402	         -0.28876843	          0.35683120	          0.88841673	         -0.92893262	         -0.32902446	         -0.16978543	         -1.75962950	          0.44060197	          1.31171374	
          5.05000000	          0.23496371	         -0.86727098	          0.43889989	         -0.28179037	          0.37137184	          0.88469042	         -0.93026138	         -0.33154791	         -0.15712971	         -1.74657314	          0.45437397	          1.30622435	
          5.06000000	          0.23844708	         -0.86017612	          0.45082151	         -0.27462473	          0.38554140	          0.88087405	         -0.93151718	         -0.33384858	         -0.14429441	         -1.73316253	          0.46768547	          1.30037919	
          5.07000000	          0.24217436	         -0.85303745	          0.46225392	         -0.26733439	          0.39932586	          0.87696703	         -0.93267567	         -0.33595530	         -0.13133977	         -1.71945733	          0.48053530	          1.29417806	
          5.08000000	          0.24613992	         -0.84586690	          0.47320644	         -0.25999252	          0.41271200	          0.87296775	         -0.93371250	         -0.33790235	         -0.11833417	         -1.70552898	          0.49292698	          1.28762473	
          5.09000000	          0.25031354	         -0.83868150	          0.48369048	         -0.25268184	          0.42568766	          0.86887393	         -0.93460955	         -0.33971071	         -0.10536420	         -1.69147234	          0.50486636	          1.28075225	
          5.10000000	          0.25466115	         -0.83149528	          0.49372390	         -0.24549380	          0.43824273	          0.86468266	         -0.93535047	         -0.34140724	         -0.09252354	         -1.67739361	          0.51636680	          1.27359821	
          5.11000000	          0.25913848	         -0.82432132	          0.50333052	         -0.23852561	          0.45037020	          0.86039074	         -0.93592349	         -0.34301757	         -0.07991350	         -1.66341109	          0.52744882	          1.26621250	
          5.12000000	          0.26370676	         -0.81716559	          0.51254185	         -0.23187687	          0.46206741	          0.85599464	         -0.93631825	         -0.34457817	         -0.06763150	         -1.64964179	          0.53814243	          1.25863788	
          5.13000000	          0.26827718	         -0.81004766	          0.52139250	         -0.22564366	          0.47333744	          0.85149082	         -0.93654274	         -0.34608446	         -0.05579648	         -1.63623077	          0.54848201	          1.25097880	
          5.14000000	          0.27298922	         -0.80289583	          0.52993884	         -0.21992029	          0.48419116	          0.84687307	         -0.93654255	         -0.34773152	         -0.04439412	         -1.62316961	          0.55852844	          1.24305264	
          5.15000000	          0.27678690	         -0.79607250	          0.53819847	         -0.21478305	          0.49465793	          0.84212931	         -0.93662012	         -0.34868627	         -0.03406805	         -1.61122893	          0.56829814	          1.23618039	
          5.16000000	          0.27646651	         -0.79077948	          0.54610812	         -0.21000731	          0.50481046	          0.83729525	         -0.93779699	         -0.34617079	         -0.02650629	         -1.60244279	          0.57771134	          1.23446663	
          5.17000000	          0.27988546	         -0.78408689	          0.55396018	         -0.20543580	          0.51474012	          0.83236935	         -0.93779543	         -0.34677133	         -0.01701125	         -1.59123062	          0.58711347	          1.22793706	
          5.18000000	          0.28148359	         -0.77801773	          0.56165416	         -0.20115493	          0.52447193	          0.82732454	         -0.93824500	         -0.34585778	         -0.00887186	         -1.58151947	          0.59638374	          1.22365184	
          5.19000000	          0.28320742	         -0.77182759	          0.56927650	         -0.19722052	          0.53402318	          0.82214555	         -0.93856147	         -0.34511073	         -0.00098091	         -1.57198944	          0.60562557	          1.21911860	
          5.20000000	          0.28501451	         -0.76551625	          0.57684625	         -0.19367166	          0.54340288	          0.81682593	         -0.93875344	         -0.34452601	          0.00661890	         -1.56269331	          0.61486255	          1.21438019	
          5.21000000	          0.28689179	         -0.75907821	          0.58437434	         -0.19053065	          0.55261652	          0.81136493	         -0.93882436	         -0.34411516	          0.01391348	         -1.55364977	          0.62410883	          1.20944396	
